<svg width="400" height="393.6508" xmlns="http://www.w3.org/2000/svg"><path d="M239.764 71.07c-3.14.295-6.86.803-8.268 1.13-1.407.327-3.268.702-4.134.834-1.907.292-7.404 1.949-14.567 4.393-1.621.552-6.202 2.575-9.347 4.127-4.18 2.062-7.915 4.346-13.105 8.013-.919.65-2.179 1.533-2.798 1.964-2.98 2.069-9.403 8.018-12.566 11.637-1.937 2.217-3.763 4.278-4.058 4.58-2.337 2.4-8.572 12.374-11.892 19.024-1.135 2.273-2.391 4.778-2.79 5.565-.4.787-.727 1.654-.727 1.925 0 .272-.335 1.222-.745 2.112-1.532 3.329-2.905 7.334-3.94 11.488-.381 1.531-.838 3.019-1.016 3.306-.412.666-1.282 4.727-1.985 9.265-.302 1.949-.75 4.606-.995 5.906-.635 3.372-.929 19.058-.423 22.637 1.545 10.939 2.31 14.793 3.636 18.315.409 1.087.743 2.33.743 2.762 0 .432.355 1.447.788 2.255.433.808.787 1.714.787 2.013 0 .545 1.491 4.182 2.575 6.282.316.613.575 1.279.575 1.479 0 .34 3.279 6.172 4.811 8.557.372.58.957 1.551 1.3 2.158.343.607.924 1.437 1.292 1.845.691.767 1.436 1.718 2.931 3.744 1.141 1.546 10.288 10.667 12.307 12.273 1.892 1.504 8.659 6.035 10.036 6.72.541.269 1.25.668 1.575.886.325.218 1.033.574 1.575.789.541.216 1.25.559 1.574.763 1.309.819 3.532 1.711 7.087 2.843 2.057.655 4.367 1.424 5.133 1.709.766.285 2.272.638 3.346.783 1.075.146 2.84.561 3.923.923 2.942.983 25.102.97 29.133-.017 1.516-.371 3.819-.929 5.119-1.238 15.509-3.7 30.15-13.219 38.886-25.283 5.691-7.858 10.278-17.508 11.498-24.183.138-.758.536-2.529.884-3.937.895-3.617.887-19.449-.011-22.047-.337-.974-.73-2.48-.874-3.346-1.195-7.197-6.514-17.025-12.333-22.789-3.779-3.742-3.985-3.739-7.272.101-1.26 1.473-2.683 3.105-3.161 3.628-.479.522-1.819 2.096-2.98 3.496-1.16 1.401-2.873 3.354-3.807 4.341-.934.986-2.34 2.616-3.123 3.622-.784 1.006-1.665 1.921-1.958 2.034-.292.112-1.282 1.233-2.199 2.492-.918 1.258-2.002 2.611-2.409 3.007-.893.867-.668 1.829.89 3.802 3.79 4.797 4.112 14.273.732 21.506-.415.889-.756 1.723-.756 1.852 0 .812-4.834 6.963-6.765 8.607-3.067 2.612-7.743 5.442-8.99 5.442-.333 0-.954.242-1.381.538-3.172 2.197-17.81 3.213-23.612 1.64-1.082-.294-2.677-.711-3.543-.927-9.279-2.313-17.347-8.985-24.125-19.951-.268-.434-.687-1.231-.931-1.772-.245-.541-1.029-2.234-1.744-3.762-3.902-8.346-5.302-20.764-3.713-32.936.432-3.31 1.044-6.727 1.36-7.593.316-.867.583-1.941.592-2.387.016-.717.78-3.095 2.965-9.228 1.996-5.602 8.005-16.378 10.975-19.681 4.291-4.774 10.32-10.341 13.44-12.41 3.775-2.504 10.626-6.098 11.625-6.098.331 0 .951-.243 1.378-.54.427-.297 1.354-.666 2.06-.819.706-.154 1.769-.519 2.362-.812.593-.293 2.585-.809 4.425-1.147 1.841-.338 4.233-.808 5.315-1.045 2.584-.566 20.445-.57 24.016-.006 11.072 1.749 20.44 4.73 26.181 8.332.325.203.977.538 1.45.743.854.37 5.817 3.736 6.677 4.526.247.228 1.221 1.034 2.163 1.792 2.222 1.786 7.133 6.692 9.46 9.449 2.659 3.151 7.416 9.781 7.416 10.336 0 .14.505 1.016 1.122 1.947 1.737 2.618 4.859 9.078 6.908 14.292 1.021 2.598 2.025 5.078 2.231 5.511.205.434.536 1.585.735 2.56.198.974.632 2.48.964 3.346.332.866.611 2.04.621 2.608.009.568.26 1.723.558 2.567.298.844.669 2.505.826 3.691.157 1.187.538 3.391.849 4.898 1.385 6.727 1.495 30.484.164 35.252-.211.758-.645 2.972-.962 4.921-1.007 6.168-3.511 15.01-5.579 19.691-1.738 3.935-4.241 9.206-5.138 10.821-.541.974-1.337 2.524-1.767 3.445-.43.92-.933 1.673-1.119 1.673-.185 0-.523.535-.751 1.19-.656 1.881-5.121 7.786-11.355 15.016-3.212 3.726-6.723 7.056-11.299 10.716-1.321 1.057-2.491 2.054-2.599 2.217-1.236 1.854-17.994 11.433-24.606 14.064-7.246 2.884-17.733 6.01-20.164 6.01-.54 0-1.982.257-3.205.572-7.845 2.023-28.817 1.363-39.033-1.227-1.191-.302-3.14-.792-4.331-1.09-2.392-.597-5.466-1.622-7.283-2.428-.65-.289-1.713-.643-2.362-.789-.65-.145-1.624-.491-2.166-.768-.541-.278-3.762-1.856-7.157-3.509-3.396-1.652-6.814-3.438-7.596-3.969-.783-.531-1.508-.966-1.611-.966-2.192 0-17.26-12.77-25.695-21.775-1.99-2.125-3.257-2.736-3.813-1.836-.261.421-3.812 3.408-6.073 5.107-.72.542-1.684 1.316-2.143 1.722-1.09.964-5.877 4.878-7.614 6.226-.75.582-1.568 1.307-1.819 1.611-.25.304-2.154 1.902-4.23 3.55-4.91 3.898-4.888 3.869-4.125 5.345.636 1.231 6 7.206 9.212 10.264 4.998 4.756 7.912 7.432 9.458 8.684.936.758 1.981 1.644 2.323 1.968.341.325 1.019.857 1.506 1.182.487.324 2.567 1.875 4.622 3.444 2.055 1.57 3.909 2.855 4.119 2.855.21 0 .618.284.907.631.288.348.885.79 1.327.984.442.193 1.956 1.087 3.363 1.985 3.518 2.246 7.258 4.272 12.598 6.826 2.491 1.191 5.183 2.521 5.984 2.956.801.435 1.66.791 1.909.791.249 0 1.011.258 1.694.573 1.164.538 2.477 1.036 5.768 2.188 5.524 1.934 5.847 2.032 11.22 3.388 1.299.328 3.248.839 4.331 1.137 1.083.298 2.943.656 4.134.796 1.191.14 3.051.488 4.134.772 7.323 1.926 34.615 2.022 43.504.154.974-.204 3.189-.613 4.921-.907 4.23-.718 10.944-2.444 15.551-3.997.974-.328 2.569-.834 3.543-1.125 2.455-.732 4.25-1.388 6.146-2.246.89-.403 1.829-.733 2.087-.733.258 0 1.125-.348 1.926-.772.8-.425 2.253-1.113 3.227-1.53 2.688-1.148 6.703-3.126 8.465-4.168.866-.513 2.68-1.495 4.031-2.183 1.351-.688 2.559-1.417 2.684-1.62.126-.203.792-.628 1.481-.946.689-.317 2.138-1.194 3.221-1.948 3.117-2.172 6.11-4.318 6.619-4.746.257-.217 1.171-.92 2.03-1.562 3.826-2.862 11.514-9.603 14.157-12.415 1.606-1.709 6.079-6.615 7.91-8.677 3.425-3.857 12.001-16.136 12.001-17.183 0-.27.354-.68.787-.911.433-.232.787-.626.787-.875 0-.25 1.039-2.237 2.308-4.416 1.269-2.179 2.441-4.404 2.605-4.946.164-.541.51-1.25.769-1.574.259-.325.982-1.92 1.606-3.544.625-1.624 1.367-3.302 1.649-3.729.282-.427.512-1.05.512-1.384 0-.334.355-1.268.788-2.076.433-.808.787-1.761.787-2.117 0-.356.34-1.375.755-2.265.992-2.125 1.918-4.973 2.615-8.039.311-1.367.722-2.784.914-3.15.192-.366.47-1.462.619-2.437.148-.974.511-2.569.806-3.543.295-.974.652-2.746.793-3.937.141-1.191.497-3.14.791-4.331 1.337-5.428 2.145-26.386 1.363-35.371-1.101-12.649-1.988-18.322-4.193-26.833-.308-1.191-.794-3.14-1.079-4.331-.701-2.933-1.742-6.245-2.411-7.677-.304-.65-.666-1.669-.805-2.265-.14-.596-.589-1.741-.998-2.544-.41-.803-.745-1.689-.745-1.969s-.354-1.17-.787-1.978c-.433-.808-.788-1.679-.788-1.935s-.732-1.942-1.627-3.746c-.894-1.804-1.774-3.578-1.955-3.942-2.858-5.77-4.348-8.395-6.707-11.822-.404-.587-.734-1.223-.734-1.415 0-.192-.355-.669-.788-1.061-.433-.392-.787-.866-.787-1.053 0-.187-.664-1.222-1.476-2.299-12.748-16.906-23.627-26.363-40.453-35.165-4.285-2.242-16.119-6.567-19.685-7.196-.866-.152-2.106-.498-2.756-.767-.65-.27-2.244-.612-3.543-.759-1.3-.148-3.337-.516-4.528-.819-5.592-1.42-24.228-2.052-33.858-1.148" fill="#f49cc4" fill-rule="evenodd"/></svg>